<?xml version="1.0" encoding="UTF-8" standalone="no"?>
<!-- Generator: Adobe Illustrator 16.0.0, SVG Export Plug-In . SVG Version: 6.00 Build 0)  -->

<svg
   xmlns:dc="http://purl.org/dc/elements/1.1/"
   xmlns:cc="http://creativecommons.org/ns#"
   xmlns:rdf="http://www.w3.org/1999/02/22-rdf-syntax-ns#"
   xmlns:svg="http://www.w3.org/2000/svg"
   xmlns="http://www.w3.org/2000/svg"
   xmlns:sodipodi="http://sodipodi.sourceforge.net/DTD/sodipodi-0.dtd"
   xmlns:inkscape="http://www.inkscape.org/namespaces/inkscape"
   version="1.1"
   id="Layer_1"
   x="0px"
   y="0px"
   width="512px"
   height="512px"
   viewBox="0 0 512 512"
   enable-background="new 0 0 512 512"
   xml:space="preserve"
   sodipodi:docname="basket-plus.svg"
   inkscape:version="0.92.4 (unknown)"><metadata
   id="metadata13"><rdf:RDF><cc:Work
       rdf:about=""><dc:format>image/svg+xml</dc:format><dc:type
         rdf:resource="http://purl.org/dc/dcmitype/StillImage" /></cc:Work></rdf:RDF></metadata><defs
   id="defs11" /><sodipodi:namedview
   pagecolor="#ffffff"
   bordercolor="#666666"
   borderopacity="1"
   objecttolerance="10"
   gridtolerance="10"
   guidetolerance="10"
   inkscape:pageopacity="0"
   inkscape:pageshadow="2"
   inkscape:window-width="1920"
   inkscape:window-height="966"
   id="namedview9"
   showgrid="false"
   inkscape:zoom="0.4609375"
   inkscape:cx="264.67797"
   inkscape:cy="245.15254"
   inkscape:window-x="0"
   inkscape:window-y="27"
   inkscape:window-maximized="1"
   inkscape:current-layer="Layer_1" />
<path
   fill="#020201"
   d="M351.332,86.006c8.004-0.119,15.811,2.681,22.238,7.392c6.697-3.306,13.861-5.808,21.369-7.377  c-9.395-10.654-22.541-18.056-36.729-19.665c-7.088-0.521-30.334-0.401-46.035-0.348c-1-10.11-9.525-18.008-19.898-18.008h-87  c-10.387,0-18.92,7.919-19.901,18.049c-19.155-0.169-49.697-0.793-60.374,3.647c-19.07,7.12-34.01,24.74-37.04,44.99  c-4.64,29.089-9.399,58.169-13.91,87.291c6.721,0.029,13.44,0.159,20.16-0.021c4.53-27.64,8.83-55.31,13.34-82.95  c1.83-16.4,15.96-30.24,32.12-32.61c6.937-0.618,30.914-0.396,46.275-0.343C188.188,94.648,195.98,101,205.277,101h87  c9.309,0,17.109-6.37,19.34-14.982C325.629,86.029,346.078,86.056,351.332,86.006z"
   id="path2"
   style="fill:#dd352e;fill-opacity:1" />
<path
   d="M413.529,264.932c-34.578,0-64.617-19.413-79.826-47.932H42.777c-11.046,0-20,8.954-20,20l40,207c0,11.046,8.954,20,20,20  h331c11.045,0,20-8.954,20-20l38.852-201.057C456.779,256.644,436.123,264.932,413.529,264.932z M130,398.5  c0,5.799-4.701,10.5-10.5,10.5H119.5c-5.799,0-10.5-4.701-10.5-10.5v-117c0-5.799,4.701-10.5,10.5-10.5h0.001  c5.799,0,10.5,4.701,10.5,10.5V398.5z M196,398.5c0,5.799-4.701,10.5-10.5,10.5H185.5c-5.799,0-10.5-4.701-10.5-10.5v-117  c0-5.799,4.701-10.5,10.5-10.5h0.001c5.799,0,10.5,4.701,10.5,10.5V398.5z M258,398.5c0,5.799-4.701,10.5-10.5,10.5l0,0  c-5.799,0-10.5-4.701-10.5-10.5v-117c0-5.799,4.701-10.5,10.5-10.5l0,0c5.799,0,10.5,4.701,10.5,10.5V398.5z M323,398.5  c0,5.799-4.701,10.5-10.5,10.5s-10.5-4.701-10.5-10.5v-117c0-5.799,4.701-10.5,10.5-10.5s10.5,4.701,10.5,10.5V398.5z M388,398.5  c0,5.799-4.701,10.5-10.5,10.5s-10.5-4.701-10.5-10.5v-117c0-5.799,4.701-10.5,10.5-10.5s10.5,4.701,10.5,10.5V398.5z"
   id="path4"
   style="fill:#dd352e;fill-opacity:1" />
<path
   d="M413.529,98.712c-41.805,0-75.695,33.89-75.695,75.694s33.891,75.694,75.695,75.694s75.693-33.89,75.693-75.694  S455.334,98.712,413.529,98.712z M458,190h-28v28.113c0,8.837-7.164,16-16,16s-16-7.163-16-16V190h-28c-8.837,0-16-7.164-16-16  c0-8.836,7.163-16,16-16h28v-27.887c0-8.837,7.164-16,16-16s16,7.163,16,16V158h28c8.837,0,16,7.164,16,16  C474,182.836,466.837,190,458,190z"
   id="path6"
   style="fill:#dd352e;fill-opacity:1" />
</svg>