<?xml version="1.0" encoding="UTF-8" standalone="no"?>
<svg
   xmlns:dc="http://purl.org/dc/elements/1.1/"
   xmlns:cc="http://creativecommons.org/ns#"
   xmlns:rdf="http://www.w3.org/1999/02/22-rdf-syntax-ns#"
   xmlns:svg="http://www.w3.org/2000/svg"
   xmlns="http://www.w3.org/2000/svg"
   xmlns:sodipodi="http://sodipodi.sourceforge.net/DTD/sodipodi-0.dtd"
   xmlns:inkscape="http://www.inkscape.org/namespaces/inkscape"
   width="300"
   height="300"
   enable-background="new 0 0 434.468 434.468"
   version="1.1"
   viewBox="0 0 554.571 554.571"
   xml:space="preserve"
   id="svg4"
   sodipodi:docname="car.svg"
   inkscape:version="0.92.4 (unknown)"><metadata
     id="metadata10"><rdf:RDF><cc:Work
         rdf:about=""><dc:format>image/svg+xml</dc:format><dc:type
           rdf:resource="http://purl.org/dc/dcmitype/StillImage" /></cc:Work></rdf:RDF></metadata><defs
     id="defs8" /><sodipodi:namedview
     pagecolor="#ffffff"
     bordercolor="#666666"
     borderopacity="1"
     objecttolerance="10"
     gridtolerance="10"
     guidetolerance="10"
     inkscape:pageopacity="0"
     inkscape:pageshadow="2"
     inkscape:window-width="640"
     inkscape:window-height="480"
     id="namedview6"
     showgrid="false"
     inkscape:zoom="0.78666667"
     inkscape:cx="152.54237"
     inkscape:cy="143.64407"
     inkscape:window-x="0"
     inkscape:window-y="27"
     inkscape:window-maximized="0"
     inkscape:current-layer="svg4" /><path
     d="m183.27 262.87h-62.857c-4.971 0-9-4.029-9-9s4.029-9 9-9h62.857c4.971 0 9 4.029 9 9s-4.029 9-9 9zm-26.803 36.589h35.746c4.971 0 9-4.029 9-9s-4.029-9-9-9h-35.746c-4.971 0-9 4.029-9 9s4.03 9 9 9zm-45.698-9c0-4.971-4.029-9-9-9h-21.465c-4.971 0-9 4.029-9 9s4.029 9 9 9h21.465c4.971 0 9-4.03 9-9zm118.27-73.176c0-4.971-4.029-9-9-9h-148.89c-4.971 0-9 4.029-9 9s4.029 9 9 9h148.89c4.97 0 9-4.03 9-9zm267.52 111.4-0.037 8.281c-0.025 5.302-0.054 11.335-0.054 18.688 0 14.555-11.165 27.069-26.564 31.057-3.763 28.057-27.858 49.764-56.929 49.764-31.671 0-57.438-25.767-57.438-57.439 0-31.671 25.767-57.438 57.438-57.438 27.847 0 51.129 19.92 56.347 46.257 5.447-2.586 9.146-7.183 9.146-12.201 0-7.387 0.028-13.447 0.054-18.773l0.037-8.279c0.049-10.686 0.116-25.321-0.039-32.191-0.049-2.183-0.11-4.205-0.197-6.091h-222.13c-24.436 0-33.425-21.789-36.379-28.949-1.896-4.595 0.292-9.857 4.887-11.752 4.602-1.894 9.858 0.293 11.752 4.887 5.152 12.487 11.056 17.814 19.74 17.814h218.94c-3.772-8.909-11.869-16.082-29.658-31.843-3.58-3.171-7.511-6.654-11.827-10.528-3.108-2.788-6.23-5.771-9.249-8.655-4.476-4.276-9.104-8.698-13.974-12.777-4.209-3.526-8.194-6.881-11.983-10.072-47.992-40.409-62.476-52.604-104.72-52.604h-165.7c-10.331 0-19.06 6.586-19.06 14.382v21.486c0 4.971-4.029 9-9 9s-9-4.029-9-9v-21.485c0-17.855 16.625-32.382 37.06-32.382h165.7c48.815 0 67.195 15.476 116.32 56.834 3.778 3.182 7.751 6.527 11.948 10.042 5.32 4.457 10.165 9.085 14.85 13.561 3.053 2.917 5.936 5.671 8.835 8.271 4.287 3.847 8.189 7.305 11.743 10.453 30.957 27.428 38.313 33.944 39.108 69 0.161 7.116 0.097 21.292 0.044 32.682zm-44.144 50.475c-3e-3 -0.12-3e-3 -0.239-1e-3 -0.357-0.127-21.639-17.77-39.204-39.438-39.204-21.746 0-39.438 17.692-39.438 39.438 0 21.747 17.691 39.439 39.438 39.439 21.705 0 39.371-17.626 39.439-39.316zm-277.8-9.124h-0.031c-4.971 0-8.984 4.029-8.984 9s4.045 9 9.016 9 9-4.029 9-9-4.03-9-9.001-9zm238.37 0h-0.035c-4.971 0-8.982 4.029-8.982 9s4.047 9 9.018 9 9-4.029 9-9-4.03-9-9.001-9zm-76.36 9c0 4.971-4.029 9-9 9h-96.295c-4.333 27.411-28.125 48.439-56.735 48.439-29.052 0-53.135-21.679-56.92-49.711-10.473-2.634-19.175-9.201-23.655-18.197-2.036-4.088-3.068-8.432-3.068-12.913v-26.665c0-4.971 4.029-9 9-9s9 4.029 9 9v26.665c0 1.67 0.397 3.314 1.181 4.888 1.569 3.15 4.47 5.734 8.1 7.406 5.181-26.383 28.484-46.35 56.363-46.35 28.61 0 52.402 21.028 56.735 48.438h96.295c4.97 0 8.999 4.03 8.999 9zm-122.59 0c0-21.746-17.692-39.438-39.439-39.438-21.71 0-39.379 17.632-39.438 39.329v0.121c7e-3 21.742 17.695 39.428 39.438 39.428 21.746 0 39.439-17.693 39.439-39.44z"
     fill="#2b4450"
     id="path2"
     style="fill:#ffffff" /></svg>